<svg width="158" height="56" viewBox="0 0 158 56" fill="none" xmlns="http://www.w3.org/2000/svg">
<g clip-path="url(#clip0_411_38)">
<path d="M20.7738 47.5C31.8195 47.5 40.7738 38.5457 40.7738 27.5C40.7738 16.4543 31.8195 7.5 20.7738 7.5C9.7281 7.5 0.773804 16.4543 0.773804 27.5C0.773804 38.5457 9.7281 47.5 20.7738 47.5Z" fill="#3056D3"/>
<path fill-rule="evenodd" clip-rule="evenodd" d="M13.349 31.182C11.2277 27.6467 11.5814 24.4644 14.4097 21.6361C18.6523 17.3934 22.3646 20.0451 25.0163 18.4541C26.7843 17.3934 27.4913 15.6258 27.1376 13.1508C29.2589 16.6861 28.9053 19.8684 26.077 22.6967C21.8343 26.9394 18.122 24.2877 15.4704 25.8787C13.7024 26.9394 12.9954 28.707 13.349 31.182ZM14.4097 42.8493C12.2884 39.314 12.642 36.1317 15.4704 33.3033C19.713 29.0607 23.4253 31.7123 26.077 30.1214C27.8449 29.0607 28.5519 27.293 28.1983 24.8181C30.3196 28.3534 29.9659 31.5357 27.1376 34.364C22.895 38.6066 19.1827 35.955 16.531 37.546C14.763 38.6066 14.056 40.3743 14.4097 42.8493Z" fill="white"/>
<path d="M59.4605 12.2281V22.0001H57.5005V12.2281H59.4605ZM65.695 14.1321C66.619 14.1321 67.3656 14.4261 67.935 15.0141C68.5043 15.5927 68.789 16.4047 68.789 17.4501V22.0001H66.829V17.7161C66.829 17.1001 66.675 16.6287 66.367 16.3021C66.059 15.9661 65.639 15.7981 65.107 15.7981C64.5656 15.7981 64.1363 15.9661 63.819 16.3021C63.511 16.6287 63.357 17.1001 63.357 17.7161V22.0001H61.397V14.2441H63.357V15.2101C63.6183 14.8741 63.9496 14.6127 64.351 14.4261C64.7616 14.2301 65.2096 14.1321 65.695 14.1321ZM73.8868 20.1941L75.8468 14.2441H77.9328L75.0628 22.0001H72.6828L69.8268 14.2441H71.9268L73.8868 20.1941ZM86.2437 17.9541C86.2437 18.2341 86.225 18.4861 86.1877 18.7101H80.5177C80.5644 19.2701 80.7604 19.7087 81.1057 20.0261C81.451 20.3434 81.8757 20.5021 82.3797 20.5021C83.1077 20.5021 83.6257 20.1894 83.9337 19.5641H86.0477C85.8237 20.3107 85.3944 20.9267 84.7597 21.4121C84.125 21.8881 83.3457 22.1261 82.4217 22.1261C81.675 22.1261 81.003 21.9627 80.4057 21.6361C79.8177 21.3001 79.3557 20.8287 79.0197 20.2221C78.693 19.6154 78.5297 18.9154 78.5297 18.1221C78.5297 17.3194 78.693 16.6147 79.0197 16.0081C79.3464 15.4014 79.8037 14.9347 80.3917 14.6081C80.9797 14.2814 81.6564 14.1181 82.4217 14.1181C83.159 14.1181 83.817 14.2767 84.3957 14.5941C84.9837 14.9114 85.4364 15.3641 85.7537 15.9521C86.0804 16.5307 86.2437 17.1981 86.2437 17.9541ZM84.2137 17.3941C84.2044 16.8901 84.0224 16.4887 83.6677 16.1901C83.313 15.8821 82.879 15.7281 82.3657 15.7281C81.8804 15.7281 81.4697 15.8774 81.1337 16.1761C80.807 16.4654 80.6064 16.8714 80.5317 17.3941H84.2137ZM91.9723 14.1321C92.8963 14.1321 93.643 14.4261 94.2123 15.0141C94.7817 15.5927 95.0663 16.4047 95.0663 17.4501V22.0001H93.1063V17.7161C93.1063 17.1001 92.9523 16.6287 92.6443 16.3021C92.3363 15.9661 91.9163 15.7981 91.3843 15.7981C90.843 15.7981 90.4137 15.9661 90.0963 16.3021C89.7883 16.6287 89.6343 17.1001 89.6343 17.7161V22.0001H87.6743V14.2441H89.6343V15.2101C89.8957 14.8741 90.227 14.6127 90.6283 14.4261C91.039 14.2301 91.487 14.1321 91.9723 14.1321ZM99.2122 15.8541V19.6061C99.2122 19.8674 99.2728 20.0587 99.3942 20.1801C99.5248 20.2921 99.7395 20.3481 100.038 20.3481H100.948V22.0001H99.7162C98.0642 22.0001 97.2382 21.1974 97.2382 19.5921V15.8541H96.3142V14.2441H97.2382V12.3261H99.2122V14.2441H100.948V15.8541H99.2122ZM105.802 22.1261C105.055 22.1261 104.383 21.9627 103.786 21.6361C103.189 21.3001 102.717 20.8287 102.372 20.2221C102.036 19.6154 101.868 18.9154 101.868 18.1221C101.868 17.3287 102.041 16.6287 102.386 16.0221C102.741 15.4154 103.221 14.9487 103.828 14.6221C104.435 14.2861 105.111 14.1181 105.858 14.1181C106.605 14.1181 107.281 14.2861 107.888 14.6221C108.495 14.9487 108.971 15.4154 109.316 16.0221C109.671 16.6287 109.848 17.3287 109.848 18.1221C109.848 18.9154 109.666 19.6154 109.302 20.2221C108.947 20.8287 108.462 21.3001 107.846 21.6361C107.239 21.9627 106.558 22.1261 105.802 22.1261ZM105.802 20.4181C106.157 20.4181 106.488 20.3341 106.796 20.1661C107.113 19.9887 107.365 19.7274 107.552 19.3821C107.739 19.0367 107.832 18.6167 107.832 18.1221C107.832 17.3847 107.636 16.8201 107.244 16.4281C106.861 16.0267 106.39 15.8261 105.83 15.8261C105.27 15.8261 104.799 16.0267 104.416 16.4281C104.043 16.8201 103.856 17.3847 103.856 18.1221C103.856 18.8594 104.038 19.4287 104.402 19.8301C104.775 20.2221 105.242 20.4181 105.802 20.4181ZM113.246 15.4481C113.498 15.0374 113.824 14.7154 114.226 14.4821C114.636 14.2487 115.103 14.1321 115.626 14.1321V16.1901H115.108C114.492 16.1901 114.025 16.3347 113.708 16.6241C113.4 16.9134 113.246 17.4174 113.246 18.1361V22.0001H111.286V14.2441H113.246V15.4481ZM124.366 14.2441L119.564 25.6681H117.478L119.158 21.8041L116.05 14.2441H118.248L120.25 19.6621L122.28 14.2441H124.366ZM69.4041 36.1681C69.1801 35.7574 68.8721 35.4447 68.4801 35.2301C68.0881 35.0154 67.6308 34.9081 67.1081 34.9081C66.5294 34.9081 66.0161 35.0387 65.5681 35.3001C65.1201 35.5614 64.7701 35.9347 64.5181 36.4201C64.2661 36.9054 64.1401 37.4654 64.1401 38.1001C64.1401 38.7534 64.2661 39.3227 64.5181 39.8081C64.7794 40.2934 65.1388 40.6667 65.5961 40.9281C66.0534 41.1894 66.5854 41.3201 67.1921 41.3201C67.9388 41.3201 68.5501 41.1241 69.0261 40.7321C69.5021 40.3307 69.8148 39.7754 69.9641 39.0661H66.6041V37.5681H71.8961V39.2761C71.7654 39.9574 71.4854 40.5874 71.0561 41.1661C70.6268 41.7447 70.0714 42.2114 69.3901 42.5661C68.7181 42.9114 67.9621 43.0841 67.1221 43.0841C66.1794 43.0841 65.3254 42.8741 64.5601 42.4541C63.8041 42.0247 63.2068 41.4321 62.7681 40.6761C62.3388 39.9201 62.1241 39.0614 62.1241 38.1001C62.1241 37.1387 62.3388 36.2801 62.7681 35.5241C63.2068 34.7587 63.8041 34.1661 64.5601 33.7461C65.3254 33.3167 66.1748 33.1021 67.1081 33.1021C68.2094 33.1021 69.1661 33.3727 69.9781 33.9141C70.7901 34.4461 71.3501 35.1974 71.6581 36.1681H69.4041ZM80.6682 35.2441V43.0001H78.6942V42.0201C78.4422 42.3561 78.1109 42.6221 77.7002 42.8181C77.2989 43.0047 76.8602 43.0981 76.3842 43.0981C75.7775 43.0981 75.2409 42.9721 74.7742 42.7201C74.3075 42.4587 73.9389 42.0807 73.6682 41.5861C73.4069 41.0821 73.2762 40.4847 73.2762 39.7941V35.2441H75.2362V39.5141C75.2362 40.1301 75.3902 40.6061 75.6982 40.9421C76.0062 41.2687 76.4262 41.4321 76.9582 41.4321C77.4995 41.4321 77.9242 41.2687 78.2322 40.9421C78.5402 40.6061 78.6942 40.1301 78.6942 39.5141V35.2441H80.6682ZM82.0981 39.0941C82.0981 38.3101 82.2521 37.6147 82.5601 37.0081C82.8774 36.4014 83.3067 35.9347 83.8481 35.6081C84.3894 35.2814 84.9914 35.1181 85.6541 35.1181C86.1581 35.1181 86.6387 35.2301 87.0961 35.4541C87.5534 35.6687 87.9174 35.9581 88.1881 36.3221V32.6401H90.1761V43.0001H88.1881V41.8521C87.9454 42.2347 87.6047 42.5427 87.1661 42.7761C86.7274 43.0094 86.2187 43.1261 85.6401 43.1261C84.9867 43.1261 84.3894 42.9581 83.8481 42.6221C83.3067 42.2861 82.8774 41.8147 82.5601 41.2081C82.2521 40.5921 82.0981 39.8874 82.0981 39.0941ZM88.2021 39.1221C88.2021 38.6461 88.1087 38.2401 87.9221 37.9041C87.7354 37.5587 87.4834 37.2974 87.1661 37.1201C86.8487 36.9334 86.5081 36.8401 86.1441 36.8401C85.7801 36.8401 85.4441 36.9287 85.1361 37.1061C84.8281 37.2834 84.5761 37.5447 84.3801 37.8901C84.1934 38.2261 84.1001 38.6274 84.1001 39.0941C84.1001 39.5607 84.1934 39.9714 84.3801 40.3261C84.5761 40.6714 84.8281 40.9374 85.1361 41.1241C85.4534 41.3107 85.7894 41.4041 86.1441 41.4041C86.5081 41.4041 86.8487 41.3154 87.1661 41.1381C87.4834 40.9514 87.7354 40.6901 87.9221 40.3541C88.1087 40.0087 88.2021 39.5981 88.2021 39.1221ZM91.5863 39.0941C91.5863 38.3101 91.7403 37.6147 92.0483 37.0081C92.3657 36.4014 92.7903 35.9347 93.3223 35.6081C93.8637 35.2814 94.4657 35.1181 95.1283 35.1181C95.707 35.1181 96.211 35.2347 96.6403 35.4681C97.079 35.7014 97.429 35.9954 97.6903 36.3501V35.2441H99.6643V43.0001H97.6903V41.8661C97.4383 42.2301 97.0883 42.5334 96.6403 42.7761C96.2017 43.0094 95.693 43.1261 95.1143 43.1261C94.461 43.1261 93.8637 42.9581 93.3223 42.6221C92.7903 42.2861 92.3657 41.8147 92.0483 41.2081C91.7403 40.5921 91.5863 39.8874 91.5863 39.0941ZM97.6903 39.1221C97.6903 38.6461 97.597 38.2401 97.4103 37.9041C97.2237 37.5587 96.9717 37.2974 96.6543 37.1201C96.337 36.9334 95.9963 36.8401 95.6323 36.8401C95.2683 36.8401 94.9323 36.9287 94.6243 37.1061C94.3163 37.2834 94.0643 37.5447 93.8683 37.8901C93.6817 38.2261 93.5883 38.6274 93.5883 39.0941C93.5883 39.5607 93.6817 39.9714 93.8683 40.3261C94.0643 40.6714 94.3163 40.9374 94.6243 41.1241C94.9417 41.3107 95.2777 41.4041 95.6323 41.4041C95.9963 41.4041 96.337 41.3154 96.6543 41.1381C96.9717 40.9514 97.2237 40.6901 97.4103 40.3541C97.597 40.0087 97.6903 39.5981 97.6903 39.1221ZM105.877 35.1321C106.801 35.1321 107.547 35.4261 108.117 36.0141C108.686 36.5927 108.971 37.4047 108.971 38.4501V43.0001H107.011V38.7161C107.011 38.1001 106.857 37.6287 106.549 37.3021C106.241 36.9661 105.821 36.7981 105.289 36.7981C104.747 36.7981 104.318 36.9661 104.001 37.3021C103.693 37.6287 103.539 38.1001 103.539 38.7161V43.0001H101.579V35.2441H103.539V36.2101C103.8 35.8741 104.131 35.6127 104.533 35.4261C104.943 35.2301 105.391 35.1321 105.877 35.1321ZM113.872 35.1181C114.451 35.1181 114.96 35.2347 115.398 35.4681C115.837 35.6921 116.182 35.9861 116.434 36.3501V35.2441H118.408V43.0561C118.408 43.7747 118.264 44.4141 117.974 44.9741C117.685 45.5434 117.251 45.9914 116.672 46.3181C116.094 46.6541 115.394 46.8221 114.572 46.8221C113.471 46.8221 112.566 46.5654 111.856 46.0521C111.156 45.5387 110.76 44.8387 110.666 43.9521H112.612C112.715 44.3067 112.934 44.5867 113.27 44.7921C113.616 45.0067 114.031 45.1141 114.516 45.1141C115.086 45.1141 115.548 44.9414 115.902 44.5961C116.257 44.2601 116.434 43.7467 116.434 43.0561V41.8521C116.182 42.2161 115.832 42.5194 115.384 42.7621C114.946 43.0047 114.442 43.1261 113.872 43.1261C113.219 43.1261 112.622 42.9581 112.08 42.6221C111.539 42.2861 111.11 41.8147 110.792 41.2081C110.484 40.5921 110.33 39.8874 110.33 39.0941C110.33 38.3101 110.484 37.6147 110.792 37.0081C111.11 36.4014 111.534 35.9347 112.066 35.6081C112.608 35.2814 113.21 35.1181 113.872 35.1181ZM116.434 39.1221C116.434 38.6461 116.341 38.2401 116.154 37.9041C115.968 37.5587 115.716 37.2974 115.398 37.1201C115.081 36.9334 114.74 36.8401 114.376 36.8401C114.012 36.8401 113.676 36.9287 113.368 37.1061C113.06 37.2834 112.808 37.5447 112.612 37.8901C112.426 38.2261 112.332 38.6274 112.332 39.0941C112.332 39.5607 112.426 39.9714 112.612 40.3261C112.808 40.6714 113.06 40.9374 113.368 41.1241C113.686 41.3107 114.022 41.4041 114.376 41.4041C114.74 41.4041 115.081 41.3154 115.398 41.1381C115.716 40.9514 115.968 40.6901 116.154 40.3541C116.341 40.0087 116.434 39.5981 116.434 39.1221Z" fill="#090E34"/>
</g>
<defs>
<clipPath id="clip0_411_38">
<rect width="157" height="56" fill="white" transform="translate(0.773804)"/>
</clipPath>
</defs>
</svg>
