<svg width="158" height="55" viewBox="0 0 158 55" fill="none" xmlns="http://www.w3.org/2000/svg">
<g clip-path="url(#clip0_412_44)">
<path d="M20.7738 47.7004C31.8195 47.7004 40.7738 38.7461 40.7738 27.7004C40.7738 16.6547 31.8195 7.70038 20.7738 7.70038C9.7281 7.70038 0.773804 16.6547 0.773804 27.7004C0.773804 38.7461 9.7281 47.7004 20.7738 47.7004Z" fill="white"/>
<path fill-rule="evenodd" clip-rule="evenodd" d="M13.349 30.682C11.2277 27.1467 11.5814 23.9644 14.4097 21.1361C18.6523 16.8934 22.3646 19.5451 25.0163 17.9541C26.7843 16.8934 27.4913 15.1258 27.1376 12.6508C29.2589 16.1861 28.9053 19.3684 26.077 22.1967C21.8343 26.4394 18.122 23.7877 15.4704 25.3787C13.7024 26.4394 12.9954 28.207 13.349 30.682ZM14.4097 42.3493C12.2884 38.814 12.642 35.6317 15.4704 32.8033C19.713 28.5607 23.4253 31.2123 26.077 29.6214C27.8449 28.5607 28.5519 26.793 28.1983 24.3181C30.3196 27.8534 29.9659 31.0357 27.1376 33.864C22.895 38.1066 19.1827 35.455 16.531 37.046C14.763 38.1066 14.056 39.8743 14.4097 42.3493Z" fill="#3056D3"/>
<path d="M59.4605 11.9284V21.7004H57.5005V11.9284H59.4605ZM65.695 13.8324C66.619 13.8324 67.3656 14.1264 67.935 14.7144C68.5043 15.293 68.789 16.105 68.789 17.1504V21.7004H66.829V17.4164C66.829 16.8004 66.675 16.329 66.367 16.0024C66.059 15.6664 65.639 15.4984 65.107 15.4984C64.5656 15.4984 64.1363 15.6664 63.819 16.0024C63.511 16.329 63.357 16.8004 63.357 17.4164V21.7004H61.397V13.9444H63.357V14.9104C63.6183 14.5744 63.9496 14.313 64.351 14.1264C64.7616 13.9304 65.2096 13.8324 65.695 13.8324ZM73.8868 19.8944L75.8468 13.9444H77.9328L75.0628 21.7004H72.6828L69.8268 13.9444H71.9268L73.8868 19.8944ZM86.2437 17.6544C86.2437 17.9344 86.225 18.1864 86.1877 18.4104H80.5177C80.5644 18.9704 80.7604 19.409 81.1057 19.7264C81.451 20.0437 81.8757 20.2024 82.3797 20.2024C83.1077 20.2024 83.6257 19.8897 83.9337 19.2644H86.0477C85.8237 20.011 85.3944 20.627 84.7597 21.1124C84.125 21.5884 83.3457 21.8264 82.4217 21.8264C81.675 21.8264 81.003 21.663 80.4057 21.3364C79.8177 21.0004 79.3557 20.529 79.0197 19.9224C78.693 19.3157 78.5297 18.6157 78.5297 17.8224C78.5297 17.0197 78.693 16.315 79.0197 15.7084C79.3464 15.1017 79.8037 14.635 80.3917 14.3084C80.9797 13.9817 81.6564 13.8184 82.4217 13.8184C83.159 13.8184 83.817 13.977 84.3957 14.2944C84.9837 14.6117 85.4364 15.0644 85.7537 15.6524C86.0804 16.231 86.2437 16.8984 86.2437 17.6544ZM84.2137 17.0944C84.2044 16.5904 84.0224 16.189 83.6677 15.8904C83.313 15.5824 82.879 15.4284 82.3657 15.4284C81.8804 15.4284 81.4697 15.5777 81.1337 15.8764C80.807 16.1657 80.6064 16.5717 80.5317 17.0944H84.2137ZM91.9723 13.8324C92.8963 13.8324 93.643 14.1264 94.2123 14.7144C94.7817 15.293 95.0663 16.105 95.0663 17.1504V21.7004H93.1063V17.4164C93.1063 16.8004 92.9523 16.329 92.6443 16.0024C92.3363 15.6664 91.9163 15.4984 91.3843 15.4984C90.843 15.4984 90.4137 15.6664 90.0963 16.0024C89.7883 16.329 89.6343 16.8004 89.6343 17.4164V21.7004H87.6743V13.9444H89.6343V14.9104C89.8957 14.5744 90.227 14.313 90.6283 14.1264C91.039 13.9304 91.487 13.8324 91.9723 13.8324ZM99.2122 15.5544V19.3064C99.2122 19.5677 99.2728 19.759 99.3942 19.8804C99.5248 19.9924 99.7395 20.0484 100.038 20.0484H100.948V21.7004H99.7162C98.0642 21.7004 97.2382 20.8977 97.2382 19.2924V15.5544H96.3142V13.9444H97.2382V12.0264H99.2122V13.9444H100.948V15.5544H99.2122ZM105.802 21.8264C105.055 21.8264 104.383 21.663 103.786 21.3364C103.189 21.0004 102.717 20.529 102.372 19.9224C102.036 19.3157 101.868 18.6157 101.868 17.8224C101.868 17.029 102.041 16.329 102.386 15.7224C102.741 15.1157 103.221 14.649 103.828 14.3224C104.435 13.9864 105.111 13.8184 105.858 13.8184C106.605 13.8184 107.281 13.9864 107.888 14.3224C108.495 14.649 108.971 15.1157 109.316 15.7224C109.671 16.329 109.848 17.029 109.848 17.8224C109.848 18.6157 109.666 19.3157 109.302 19.9224C108.947 20.529 108.462 21.0004 107.846 21.3364C107.239 21.663 106.558 21.8264 105.802 21.8264ZM105.802 20.1184C106.157 20.1184 106.488 20.0344 106.796 19.8664C107.113 19.689 107.365 19.4277 107.552 19.0824C107.739 18.737 107.832 18.317 107.832 17.8224C107.832 17.085 107.636 16.5204 107.244 16.1284C106.861 15.727 106.39 15.5264 105.83 15.5264C105.27 15.5264 104.799 15.727 104.416 16.1284C104.043 16.5204 103.856 17.085 103.856 17.8224C103.856 18.5597 104.038 19.129 104.402 19.5304C104.775 19.9224 105.242 20.1184 105.802 20.1184ZM113.246 15.1484C113.498 14.7377 113.824 14.4157 114.226 14.1824C114.636 13.949 115.103 13.8324 115.626 13.8324V15.8904H115.108C114.492 15.8904 114.025 16.035 113.708 16.3244C113.4 16.6137 113.246 17.1177 113.246 17.8364V21.7004H111.286V13.9444H113.246V15.1484ZM124.366 13.9444L119.564 25.3684H117.478L119.158 21.5044L116.05 13.9444H118.248L120.25 19.3624L122.28 13.9444H124.366ZM69.4041 35.8684C69.1801 35.4577 68.8721 35.145 68.4801 34.9304C68.0881 34.7157 67.6308 34.6084 67.1081 34.6084C66.5294 34.6084 66.0161 34.739 65.5681 35.0004C65.1201 35.2617 64.7701 35.635 64.5181 36.1204C64.2661 36.6057 64.1401 37.1657 64.1401 37.8004C64.1401 38.4537 64.2661 39.023 64.5181 39.5084C64.7794 39.9937 65.1388 40.367 65.5961 40.6284C66.0534 40.8897 66.5854 41.0204 67.1921 41.0204C67.9388 41.0204 68.5501 40.8244 69.0261 40.4324C69.5021 40.031 69.8148 39.4757 69.9641 38.7664H66.6041V37.2684H71.8961V38.9764C71.7654 39.6577 71.4854 40.2877 71.0561 40.8664C70.6268 41.445 70.0714 41.9117 69.3901 42.2664C68.7181 42.6117 67.9621 42.7844 67.1221 42.7844C66.1794 42.7844 65.3254 42.5744 64.5601 42.1544C63.8041 41.725 63.2068 41.1324 62.7681 40.3764C62.3388 39.6204 62.1241 38.7617 62.1241 37.8004C62.1241 36.839 62.3388 35.9804 62.7681 35.2244C63.2068 34.459 63.8041 33.8664 64.5601 33.4464C65.3254 33.017 66.1748 32.8024 67.1081 32.8024C68.2094 32.8024 69.1661 33.073 69.9781 33.6144C70.7901 34.1464 71.3501 34.8977 71.6581 35.8684H69.4041ZM80.6682 34.9444V42.7004H78.6942V41.7204C78.4422 42.0564 78.1109 42.3224 77.7002 42.5184C77.2989 42.705 76.8602 42.7984 76.3842 42.7984C75.7775 42.7984 75.2409 42.6724 74.7742 42.4204C74.3075 42.159 73.9389 41.781 73.6682 41.2864C73.4069 40.7824 73.2762 40.185 73.2762 39.4944V34.9444H75.2362V39.2144C75.2362 39.8304 75.3902 40.3064 75.6982 40.6424C76.0062 40.969 76.4262 41.1324 76.9582 41.1324C77.4995 41.1324 77.9242 40.969 78.2322 40.6424C78.5402 40.3064 78.6942 39.8304 78.6942 39.2144V34.9444H80.6682ZM82.0981 38.7944C82.0981 38.0104 82.2521 37.315 82.5601 36.7084C82.8774 36.1017 83.3067 35.635 83.8481 35.3084C84.3894 34.9817 84.9914 34.8184 85.6541 34.8184C86.1581 34.8184 86.6387 34.9304 87.0961 35.1544C87.5534 35.369 87.9174 35.6584 88.1881 36.0224V32.3404H90.1761V42.7004H88.1881V41.5524C87.9454 41.935 87.6047 42.243 87.1661 42.4764C86.7274 42.7097 86.2187 42.8264 85.6401 42.8264C84.9867 42.8264 84.3894 42.6584 83.8481 42.3224C83.3067 41.9864 82.8774 41.515 82.5601 40.9084C82.2521 40.2924 82.0981 39.5877 82.0981 38.7944ZM88.2021 38.8224C88.2021 38.3464 88.1087 37.9404 87.9221 37.6044C87.7354 37.259 87.4834 36.9977 87.1661 36.8204C86.8487 36.6337 86.5081 36.5404 86.1441 36.5404C85.7801 36.5404 85.4441 36.629 85.1361 36.8064C84.8281 36.9837 84.5761 37.245 84.3801 37.5904C84.1934 37.9264 84.1001 38.3277 84.1001 38.7944C84.1001 39.261 84.1934 39.6717 84.3801 40.0264C84.5761 40.3717 84.8281 40.6377 85.1361 40.8244C85.4534 41.011 85.7894 41.1044 86.1441 41.1044C86.5081 41.1044 86.8487 41.0157 87.1661 40.8384C87.4834 40.6517 87.7354 40.3904 87.9221 40.0544C88.1087 39.709 88.2021 39.2984 88.2021 38.8224ZM91.5863 38.7944C91.5863 38.0104 91.7403 37.315 92.0483 36.7084C92.3657 36.1017 92.7903 35.635 93.3223 35.3084C93.8637 34.9817 94.4657 34.8184 95.1283 34.8184C95.707 34.8184 96.211 34.935 96.6403 35.1684C97.079 35.4017 97.429 35.6957 97.6903 36.0504V34.9444H99.6643V42.7004H97.6903V41.5664C97.4383 41.9304 97.0883 42.2337 96.6403 42.4764C96.2017 42.7097 95.693 42.8264 95.1143 42.8264C94.461 42.8264 93.8637 42.6584 93.3223 42.3224C92.7903 41.9864 92.3657 41.515 92.0483 40.9084C91.7403 40.2924 91.5863 39.5877 91.5863 38.7944ZM97.6903 38.8224C97.6903 38.3464 97.597 37.9404 97.4103 37.6044C97.2237 37.259 96.9717 36.9977 96.6543 36.8204C96.337 36.6337 95.9963 36.5404 95.6323 36.5404C95.2683 36.5404 94.9323 36.629 94.6243 36.8064C94.3163 36.9837 94.0643 37.245 93.8683 37.5904C93.6817 37.9264 93.5883 38.3277 93.5883 38.7944C93.5883 39.261 93.6817 39.6717 93.8683 40.0264C94.0643 40.3717 94.3163 40.6377 94.6243 40.8244C94.9417 41.011 95.2777 41.1044 95.6323 41.1044C95.9963 41.1044 96.337 41.0157 96.6543 40.8384C96.9717 40.6517 97.2237 40.3904 97.4103 40.0544C97.597 39.709 97.6903 39.2984 97.6903 38.8224ZM105.877 34.8324C106.801 34.8324 107.547 35.1264 108.117 35.7144C108.686 36.293 108.971 37.105 108.971 38.1504V42.7004H107.011V38.4164C107.011 37.8004 106.857 37.329 106.549 37.0024C106.241 36.6664 105.821 36.4984 105.289 36.4984C104.747 36.4984 104.318 36.6664 104.001 37.0024C103.693 37.329 103.539 37.8004 103.539 38.4164V42.7004H101.579V34.9444H103.539V35.9104C103.8 35.5744 104.131 35.313 104.533 35.1264C104.943 34.9304 105.391 34.8324 105.877 34.8324ZM113.872 34.8184C114.451 34.8184 114.96 34.935 115.398 35.1684C115.837 35.3924 116.182 35.6864 116.434 36.0504V34.9444H118.408V42.7564C118.408 43.475 118.264 44.1144 117.974 44.6744C117.685 45.2437 117.251 45.6917 116.672 46.0184C116.094 46.3544 115.394 46.5224 114.572 46.5224C113.471 46.5224 112.566 46.2657 111.856 45.7524C111.156 45.239 110.76 44.539 110.666 43.6524H112.612C112.715 44.007 112.934 44.287 113.27 44.4924C113.616 44.707 114.031 44.8144 114.516 44.8144C115.086 44.8144 115.548 44.6417 115.902 44.2964C116.257 43.9604 116.434 43.447 116.434 42.7564V41.5524C116.182 41.9164 115.832 42.2197 115.384 42.4624C114.946 42.705 114.442 42.8264 113.872 42.8264C113.219 42.8264 112.622 42.6584 112.08 42.3224C111.539 41.9864 111.11 41.515 110.792 40.9084C110.484 40.2924 110.33 39.5877 110.33 38.7944C110.33 38.0104 110.484 37.315 110.792 36.7084C111.11 36.1017 111.534 35.635 112.066 35.3084C112.608 34.9817 113.21 34.8184 113.872 34.8184ZM116.434 38.8224C116.434 38.3464 116.341 37.9404 116.154 37.6044C115.968 37.259 115.716 36.9977 115.398 36.8204C115.081 36.6337 114.74 36.5404 114.376 36.5404C114.012 36.5404 113.676 36.629 113.368 36.8064C113.06 36.9837 112.808 37.245 112.612 37.5904C112.426 37.9264 112.332 38.3277 112.332 38.7944C112.332 39.261 112.426 39.6717 112.612 40.0264C112.808 40.3717 113.06 40.6377 113.368 40.8244C113.686 41.011 114.022 41.1044 114.376 41.1044C114.74 41.1044 115.081 41.0157 115.398 40.8384C115.716 40.6517 115.968 40.3904 116.154 40.0544C116.341 39.709 116.434 39.2984 116.434 38.8224Z" fill="white"/>
</g>
<defs>
<clipPath id="clip0_412_44">
<rect width="157" height="55" fill="white" transform="translate(0.773804)"/>
</clipPath>
</defs>
</svg>
